<svg xmlns="http://www.w3.org/2000/svg" xmlns:xlink="http://www.w3.org/1999/xlink" width="916" height="240" viewBox="0 0 916 240">
  <defs>
    <style>
      .cls-1 {
        isolation: isolate;
      }

      .cls-2 {
        fill: url(#linear-gradient);
      }

      .cls-3 {
        fill: url(#linear-gradient-2);
      }

      .cls-4 {
        fill: url(#linear-gradient-3);
      }

      .cls-5 {
        fill: #c7c8ca;
      }

      .cls-12, .cls-5 {
        mix-blend-mode: multiply;
      }

      .cls-6 {
        fill: #d36127;
      }

      .cls-7 {
        fill: #a32036;
      }

      .cls-8 {
        fill: url(#linear-gradient-4);
      }

      .cls-9 {
        fill: url(#linear-gradient-5);
      }

      .cls-10 {
        fill: url(#linear-gradient-6);
      }

      .cls-11 {
        fill: url(#linear-gradient-7);
      }

      .cls-12 {
        fill: #bfbfbf;
      }

      .cls-13 {
        fill: url(#linear-gradient-8);
      }

      .cls-14 {
        fill: url(#linear-gradient-9);
      }

      .cls-15 {
        fill: url(#linear-gradient-10);
      }

      .cls-16 {
        fill: url(#linear-gradient-11);
      }
    </style>
    <linearGradient id="linear-gradient" x1="372.9" y1="140.88" x2="526.71" y2="99.66" gradientUnits="userSpaceOnUse">
      <stop offset="0" stop-color="#e15851"/>
      <stop offset="0.37" stop-color="#db1e36"/>
      <stop offset="1" stop-color="#a32036"/>
    </linearGradient>
    <linearGradient id="linear-gradient-2" x1="302.16" y1="180.78" x2="362.74" y2="170.1" gradientUnits="userSpaceOnUse">
      <stop offset="0" stop-color="#e26359"/>
      <stop offset="0.37" stop-color="#db1e36"/>
      <stop offset="0.46" stop-color="#db1e36"/>
      <stop offset="1" stop-color="#a32036"/>
    </linearGradient>
    <linearGradient id="linear-gradient-3" x1="301.21" y1="143.76" x2="362.87" y2="132.89" gradientUnits="userSpaceOnUse">
      <stop offset="0.44" stop-color="#f78d2b"/>
      <stop offset="1" stop-color="#bf5027"/>
    </linearGradient>
    <linearGradient id="linear-gradient-4" x1="287.12" y1="133.48" x2="327.85" y2="174.21" gradientUnits="userSpaceOnUse">
      <stop offset="0.11" stop-color="#bf5027"/>
      <stop offset="0.44" stop-color="#f78d2b"/>
      <stop offset="0.89" stop-color="#fedbbb"/>
    </linearGradient>
    <linearGradient id="linear-gradient-5" x1="272.76" y1="172.02" x2="272.76" y2="129.14" gradientUnits="userSpaceOnUse">
      <stop offset="0.42" stop-color="#9079b7"/>
      <stop offset="0.56" stop-color="#7d66ac"/>
      <stop offset="0.78" stop-color="#594497"/>
    </linearGradient>
    <linearGradient id="linear-gradient-6" x1="260.72" y1="116.6" x2="304.38" y2="116.6" gradientUnits="userSpaceOnUse">
      <stop offset="0.03" stop-color="#bdb0d6"/>
      <stop offset="0.4" stop-color="#9079b7"/>
      <stop offset="0.54" stop-color="#7660a8"/>
      <stop offset="0.69" stop-color="#614c9c"/>
      <stop offset="0.79" stop-color="#594497"/>
    </linearGradient>
    <linearGradient id="linear-gradient-7" x1="273.6" y1="99.93" x2="303.96" y2="99.93" gradientUnits="userSpaceOnUse">
      <stop offset="0.37" stop-color="#594497"/>
      <stop offset="0.96" stop-color="#452d8c"/>
    </linearGradient>
    <linearGradient id="linear-gradient-8" x1="246.11" y1="80.78" x2="304.66" y2="80.78" gradientUnits="userSpaceOnUse">
      <stop offset="0.07" stop-color="#add9ec"/>
      <stop offset="0.59" stop-color="#00acd7"/>
      <stop offset="1" stop-color="#006998"/>
    </linearGradient>
    <linearGradient id="linear-gradient-9" x1="301.25" y1="106.57" x2="362.83" y2="95.72" gradientUnits="userSpaceOnUse">
      <stop offset="0" stop-color="#9079b7"/>
      <stop offset="0.26" stop-color="#7d66ac"/>
      <stop offset="0.65" stop-color="#594497"/>
    </linearGradient>
    <linearGradient id="linear-gradient-10" x1="301.39" y1="69.93" x2="361.87" y2="59.26" gradientUnits="userSpaceOnUse">
      <stop offset="0" stop-color="#00acd7"/>
      <stop offset="0.33" stop-color="#0088b5"/>
      <stop offset="0.61" stop-color="#0071a0"/>
      <stop offset="0.78" stop-color="#006998"/>
    </linearGradient>
    <linearGradient id="linear-gradient-11" x1="528.53" y1="119.99" x2="654.71" y2="119.99" xlink:href="#linear-gradient"/>
  </defs>
  <g class="cls-1">
    <g id="DIRECTIONS">
      <g>
        <path class="cls-2" d="M502.75,180.44c9.86-7.82,12.7-12.65,18.68-21.32,2.06-3,1-7-2.56-9.08-6.65-3.59-19.79-11-30.57-16.86-3.34-1.85-7.94-.93-9.29,3.1a30.66,30.66,0,0,1-3.1,5.68c-7.53,9.67-13.4,13.53-26.76,13.64a31.21,31.21,0,0,1-25.49-19c-2.19-5.36-2.79-9.58-2.61-16.55.15-5.86.42-11.06,2.72-16.86,4.93-12,17.49-18.86,27.49-18.86,11.37,0,22.13,7.23,27.85,19.58a6.47,6.47,0,0,0,9.34,2.88c9-5,20.44-11.16,30.4-16.86,1.77-1,5.82-4.22,2-10A80.92,80.92,0,0,0,491.29,52c-12.88-6.83-24-9-41.29-9s-28.63,3-41.7,10.58C382.71,69.31,370.14,94.93,370.14,120c0,24.5,10.43,43.19,25.14,56.71C413,193,430.42,197,451.17,197,475.62,197,490.7,190,502.75,180.44Z"/>
        <g>
          <g>
            <path class="cls-3" d="M303.65,157v31.67a6.38,6.38,0,0,0,6.38,6.38h44a6.39,6.39,0,0,0,6.39-6.38V157Z"/>
            <rect class="cls-4" x="303.65" y="119.05" width="56.78" height="38.57"/>
          </g>
          <g>
            <g>
              <path class="cls-5" d="M302.82,131.1l.1-.09Z"/>
              <path class="cls-5" d="M303.29,130.5l-.07.11Z"/>
              <path class="cls-5" d="M302.14,131.48l-.15,0Z"/>
              <path class="cls-5" d="M303.53,129.79a.83.83,0,0,1,0,.15A.83.83,0,0,0,303.53,129.79Z"/>
              <path class="cls-6" d="M303.53,120.09l0,.73c2,5.39,5.22,19,21.27,36.94a71.79,71.79,0,0,0,12.57-4.64C319.5,144.45,306.19,124.27,303.53,120.09Z"/>
              <path class="cls-5" d="M303.43,130.17l-.06.13Z"/>
              <path class="cls-5" d="M303.61,129.36l0,.15Z"/>
              <path class="cls-5" d="M302.43,131.36l-.14.06Z"/>
              <path class="cls-5" d="M302.69,131.21l-.12.07Z"/>
              <path class="cls-5" d="M303,130.88l.09-.1Z"/>
            </g>
            <path class="cls-7" d="M310.7,160.18s-.32,3.44.72,13.38A66.6,66.6,0,0,0,324.54,184a148.71,148.71,0,0,1-4.48-20.75A36.59,36.59,0,0,1,310.7,160.18Z"/>
          </g>
          <path class="cls-8" d="M310.7,160.18s7.32,4,19.81,4.16a134.41,134.41,0,0,1-26.86-43.25l-.25,7.35c-.22,4.92-4.95,2-12.15.91-1.57,4-2.73,8.19-3.31,17.57,5.6,13.9,14.51,31,25.45,41.75C310.08,166.88,310.7,160.18,310.7,160.18Z"/>
          <path class="cls-9" d="M260.72,149c-2.9,9.2-5.21,16.9-6.46,23.07C268,153,278.67,148.64,278.67,148.64s.79,6.23,7.65,12c2.39-21.52,3.12-24.7,4.93-30.92C282.18,127.54,269.37,130.88,260.72,149Z"/>
          <path class="cls-10" d="M278.82,105.1c-6.46,12.34-12.57,26.38-16,37.21-.71,2.23-1.53,4.84-2.1,6.64,19.48-35.81,42.45-9.38,42.93-20.07v-8.71s.73-11.38.73-18.16-.73-17.23-.73-17.23c0-.18,0-.35,0-.52C303.42,92.16,292.48,100.14,278.82,105.1Z"/>
          <g>
            <path class="cls-11" d="M303.58,85.05c-3.22,10.39-15.19,16.1-24.76,20-1.79,3.41-3.54,7-5.22,10.51,21.56-7,32.43-14.69,30-31.35C303.63,84.52,303.61,84.78,303.58,85.05Z"/>
            <g>
              <path class="cls-12" d="M303.46,94.62c0,.19-.09.38-.14.57C303.37,95,303.42,94.81,303.46,94.62Z"/>
              <path class="cls-12" d="M303.51,94.36c0-.18.05-.36.07-.54C303.56,94,303.54,94.18,303.51,94.36Z"/>
              <path class="cls-12" d="M303.65,92.82c0,.25,0,.51,0,.76C303.63,93.33,303.65,93.07,303.65,92.82Z"/>
              <path class="cls-12" d="M303.4,86.07h0c0-.21.09-.42.12-.63h0C303.49,85.65,303.44,85.86,303.4,86.07Z"/>
              <path class="cls-12" d="M303.58,85q0-.39.06-.78c0,.17,0,.34,0,.52V84A8.74,8.74,0,0,1,303.58,85Z"/>
              <path class="cls-12" d="M303,87.32h0a.93.93,0,0,0,0-.13A.65.65,0,0,1,303,87.32Z"/>
              <path class="cls-12" d="M299.27,93l.76-.84h0l-.76.84Z"/>
              <path class="cls-12" d="M300.36,91.81h0l.11-.15Z"/>
              <path class="cls-12" d="M301.69,90c-.15.24-.31.47-.48.71h0c.17-.24.33-.47.48-.71Z"/>
            </g>
          </g>
          <path class="cls-13" d="M303.66,84c0,14.06-34.3,28.54-57.55,25.84,5.41-4.54,19.25-19.16,19.25-19.16a66.51,66.51,0,0,1-10.75-10c18.17,0,45.79-18.4,49-29.19a114.87,114.87,0,0,1,1,17.22C304.66,79.9,303.66,84,303.66,84Z"/>
          <rect class="cls-14" x="303.65" y="82.12" width="56.78" height="38.05"/>
          <path class="cls-15" d="M354,45.29H310a6.38,6.38,0,0,0-6.38,6.38V82.73h56.78V51.67A6.39,6.39,0,0,0,354,45.29Z"/>
        </g>
        <path class="cls-16" d="M649.19,45.25H534.05a5.53,5.53,0,0,0-5.52,5.53V88.17a5.52,5.52,0,0,0,5.52,5.52H566v94.67a6.38,6.38,0,0,0,6.38,6.38h38.52a6.38,6.38,0,0,0,6.38-6.38V93.69h31.93a5.52,5.52,0,0,0,5.52-5.52V50.78A5.53,5.53,0,0,0,649.19,45.25Z"/>
      </g>
    </g>
  </g>
</svg>
