<?xml version="1.0" encoding="UTF-8"?>
<svg width="1200pt" height="1200pt" version="1.1" viewBox="0 0 1200 1200" xmlns="http://www.w3.org/2000/svg">
 <g fill="#003594">
  <path d="m188.3 444.56c-1.168 3.8477-1.0742 7.9688 0.27734 11.758 1.3516 3.7891 3.8828 7.043 7.2227 9.2812l104.2 69.43v177.47h37.5v-39.75l93.75 118.76v89.738h37.5v-42.242l112.5 142.5v162.24c0 4.9727 1.9766 9.7422 5.4922 13.258 3.5156 3.5156 8.2852 5.4922 13.258 5.4922h150c4.9727 0 9.7422-1.9766 13.258-5.4922 3.5156-3.5156 5.4922-8.2852 5.4922-13.258v-294.92l37.5-64.293v59.211h37.5v-123.51l53.699-92.117c1.6602-2.8477 2.5391-6.082 2.5508-9.375v-139.97l104.16-69.375c4.5273-2.9844 7.543-7.7852 8.2656-13.16s-0.91797-10.801-4.5-14.875c-3.5781-4.0742-8.75-6.3984-14.172-6.3711h-54.73l50.625-63.281c3.2344-4.0352 4.6562-9.2305 3.9336-14.352-0.72656-5.1211-3.5352-9.7188-7.7617-12.699-4.2266-2.9805-9.5-4.082-14.566-3.043l-78.449 15.676-31.707-79.273v-0.003906c-1.8633-4.6719-5.5234-8.4023-10.164-10.348-4.6406-1.9492-9.8672-1.9492-14.508 0-4.6406 1.9453-8.3047 5.6758-10.164 10.348l-31.633 79.277-78.375-15.676c-5.0586-1.0117-10.312 0.10938-14.52 3.0938-4.2109 2.9844-7 7.5703-7.7188 12.68-0.71875 5.1094 0.69922 10.289 3.918 14.32l50.551 63.281h-54.73c-5.4023 0-10.543 2.3281-14.102 6.3906-3.5625 4.0625-5.1992 9.4609-4.4922 14.816 0.71094 5.3555 3.6914 10.145 8.1875 13.145l104.16 69.43v96.469l-69.375 97.164-80.625-225.66v-136.73l104.16-69.375c4.5273-2.9844 7.543-7.7852 8.2656-13.16s-0.91797-10.801-4.5-14.875c-3.5781-4.0742-8.75-6.3984-14.172-6.3711h-54.73l50.625-63.281c3.2344-4.0352 4.6562-9.2305 3.9336-14.352-0.72656-5.1211-3.5352-9.7188-7.7617-12.699-4.2266-2.9805-9.5-4.082-14.566-3.043l-78.449 15.676-31.633-79.277c-1.8633-4.6719-5.5234-8.4023-10.164-10.348-4.6406-1.9492-9.8672-1.9492-14.508 0-4.6406 1.9453-8.3008 5.6758-10.164 10.348l-31.707 79.277-78.375-15.676c-5.0586-1.0117-10.312 0.10938-14.52 3.0938-4.2109 2.9844-7 7.5703-7.7188 12.68-0.71875 5.1094 0.69922 10.289 3.918 14.32l50.551 63.281h-54.73c-5.4023 0-10.543 2.3281-14.102 6.3906-3.5625 4.0625-5.1992 9.4609-4.4922 14.816 0.71094 5.3555 3.6914 10.145 8.1875 13.145l104.16 69.43v139.97c-0.003906 1.3164 0.13281 2.6328 0.41406 3.918l55.836 260.57v62.305l-168.75-184.09v-57.676l104.16-69.375c4.5273-2.9844 7.543-7.7852 8.2656-13.16s-0.91797-10.801-4.5-14.875c-3.5781-4.0742-8.75-6.3984-14.172-6.3711h-54.73l50.625-63.281c3.2344-4.0352 4.6562-9.2305 3.9336-14.352-0.72656-5.1211-3.5352-9.7188-7.7617-12.699-4.2266-2.9805-9.5-4.082-14.566-3.043l-78.449 15.676-31.707-79.273v-0.003906c-1.8633-4.6719-5.5234-8.4023-10.164-10.348-4.6406-1.9492-9.8672-1.9492-14.508 0-4.6406 1.9453-8.3047 5.6758-10.164 10.348l-31.633 79.277-78.375-15.676c-5.0586-1.0117-10.312 0.10938-14.52 3.0938-4.2109 2.9844-7 7.5703-7.7188 12.68-0.71875 5.1094 0.69922 10.289 3.918 14.32l50.551 63.281h-54.73c-4.0234 0-7.9414 1.293-11.172 3.6914-3.2305 2.3984-5.6055 5.7695-6.7734 9.6211zm567.32-32.062h31.875c4.7344 0 9.2969-1.7891 12.766-5.0117 3.4688-3.2227 5.5938-7.6367 5.9414-12.359 0.34766-4.7227-1.1055-9.4023-4.0625-13.098l-42.77-53.551 43.273 8.6445c4.2969 0.86328 8.7539 0.19531 12.609-1.8867 3.8516-2.082 6.8555-5.4492 8.4844-9.5117l20.008-50.25 20.082 50.25c1.6289 4.0625 4.6328 7.4297 8.4844 9.5117 3.8555 2.082 8.3164 2.75 12.609 1.8867l43.273-8.6445-42.844 53.551c-2.957 3.6953-4.4102 8.375-4.0625 13.098 0.34766 4.7227 2.4727 9.1367 5.9414 12.359 3.4688 3.2227 8.0312 5.0117 12.766 5.0117h31.875l-56.25 37.5h-63.75zm-262.5-168.75h31.875c4.7344 0 9.2969-1.7891 12.766-5.0117 3.4688-3.2227 5.5938-7.6367 5.9414-12.359 0.34766-4.7227-1.1055-9.4023-4.0625-13.098l-42.77-53.551 43.125 8.6445c4.293 0.86328 8.7539 0.19531 12.605-1.8867 3.8555-2.082 6.8555-5.4492 8.4883-9.5117l20.156-50.25 20.082 50.25c1.6328 4.0781 4.6484 7.4531 8.5156 9.5391 3.8711 2.082 8.3477 2.7422 12.652 1.8594l43.125-8.6445-42.844 53.551c-2.9648 3.7031-4.418 8.3945-4.0625 13.125s2.4922 9.1484 5.9766 12.367c3.4844 3.2188 8.0625 4.9961 12.805 4.9766h31.875l-56.25 37.5h-63.75zm93 593.93c3.418 3.7617 8.2188 5.9727 13.301 6.1289s10.008-1.7578 13.652-5.3047c3.6406-3.543 5.6875-8.418 5.6719-13.5v-112.5c0.003906-1.3164-0.13281-2.6328-0.41406-3.918l-55.836-260.57v-129.26h37.5v131.25c0 2.1484 0.37109 4.2773 1.0859 6.3008l93.75 262.5c1.543 4.3242 4.6172 7.9336 8.6445 10.141 4.0234 2.2109 8.7188 2.8633 13.195 1.8398 4.4766-1.0195 8.4219-3.6484 11.086-7.3867l93.75-131.25c2.2695-3.1797 3.4883-6.9883 3.4883-10.895v-93.75h37.5v126.17l-128.7 220.71c-1.6602 2.8477-2.5391 6.082-2.5508 9.375v281.25h-112.5v-150c0.003906-4.2188-1.418-8.3125-4.0312-11.625l-277.22-351.13v-68.492h37.5v56.25c0 4.6914 1.7578 9.2148 4.9297 12.676zm-271.54-399.38-42.711-53.57 43.273 8.6445c4.2969 0.86328 8.7539 0.19531 12.609-1.8867 3.8516-2.082 6.8555-5.4492 8.4844-9.5117l20.008-50.25 20.082 50.25c1.6289 4.0625 4.6328 7.4297 8.4844 9.5117 3.8555 2.082 8.3164 2.75 12.609 1.8867l43.273-8.6445-42.844 53.551c-2.957 3.6953-4.4102 8.375-4.0625 13.098 0.34766 4.7227 2.4727 9.1367 5.9414 12.359 3.4688 3.2227 8.0312 5.0117 12.766 5.0117h31.875l-56.25 37.5h-63.75l-56.25-37.5h31.875c4.7344 0 9.2969-1.7891 12.766-5.0117 3.4688-3.2227 5.5938-7.6367 5.9414-12.359 0.34766-4.7227-1.1055-9.4023-4.0625-13.098z"/>
  <path d="m637.5 862.5h37.5v75h-37.5z"/>
  <path d="m656.25 975h37.5v93.75h-37.5z"/>
  <path d="m675 768.75h37.5v56.25h-37.5z"/>
 </g>
</svg>
